<svg width="34" height="34" viewBox="0 0 34 34" fill="none" xmlns="http://www.w3.org/2000/svg">
<path d="M32.6943 17.7878C32.7027 17.7837 32.711 17.7837 32.7193 17.7837C32.711 17.7837 32.7027 17.7837 32.6943 17.7878ZM19.236 31.5295L19.211 31.517C19.2943 31.5587 19.3735 31.6045 19.4568 31.6462C19.3818 31.6087 19.3068 31.5712 19.236 31.5295ZM19.2527 31.542L19.2485 31.5378C19.2652 31.5462 19.2777 31.5545 19.2902 31.5628C19.2777 31.5545 19.2652 31.5503 19.2527 31.542ZM19.2568 31.5462L19.2527 31.542C19.261 31.5462 19.2693 31.5503 19.2777 31.5545C19.2735 31.5545 19.2652 31.5503 19.2568 31.5462ZM18.936 31.3628H18.9318C18.936 31.3628 18.9443 31.367 18.9485 31.367C18.9402 31.367 18.936 31.3628 18.9318 31.3587L18.9193 31.3503L19.011 31.4045C18.986 31.392 18.961 31.3753 18.936 31.3628ZM22.336 17.7212C22.3318 17.7337 22.3277 17.742 22.3277 17.7545C22.3277 17.742 22.3318 17.7337 22.336 17.7212ZM21.7693 17.1545C21.7693 17.1545 21.7693 17.1545 21.7693 17.1503C21.7693 17.1545 21.7693 17.1628 21.7652 17.167C21.7652 17.1628 21.7652 17.1587 21.7693 17.1545ZM23.036 10.9295C23.061 10.9212 23.0902 10.9087 23.1152 10.9003C23.0902 10.9087 23.061 10.9212 23.036 10.9295ZM11.6277 14.2337C11.636 14.2462 11.6443 14.2628 11.6527 14.2753C11.6402 14.2628 11.6318 14.2503 11.6277 14.2337ZM23.6027 32.0295C24.4818 30.8628 25.3652 29.6962 26.2402 28.5253C27.136 27.3212 28.0277 26.1128 28.9152 24.8962C29.8318 23.6462 30.7443 22.3878 31.6235 21.1087C31.811 20.8337 31.9985 20.5545 32.1735 20.2712C32.2902 20.0795 32.411 19.8837 32.5318 19.6878C32.6318 19.5253 32.7235 19.3545 32.8193 19.1837C32.9235 19.0045 33.0152 18.817 33.111 18.6337C33.186 18.4795 33.2568 18.3212 33.3193 18.1587C33.3652 18.0378 33.4027 17.9128 33.4318 17.7878C33.4443 17.7337 33.4527 17.6837 33.4527 17.6295C33.4568 17.5462 33.4527 17.4462 33.4193 17.3712C33.386 17.3003 33.3527 17.242 33.2943 17.192C33.2443 17.1545 33.1943 17.1253 33.1402 17.1045C33.0193 17.0545 32.8735 17.067 32.7443 17.0795C32.6277 17.0878 32.511 17.117 32.3943 17.1462C32.186 17.2003 31.9818 17.2628 31.7777 17.3295C31.0568 17.5712 30.3485 17.867 29.6402 18.1462C28.9527 18.4212 28.2652 18.6962 27.5735 18.9712C27.2068 19.117 26.836 19.2628 26.4693 19.4087C26.3235 19.467 26.1818 19.5295 26.0402 19.592C25.8735 19.6628 25.7027 19.7295 25.536 19.8087C25.2068 19.9587 24.8777 20.1087 24.5527 20.267C24.1902 20.4503 23.8277 20.6295 23.4693 20.817C23.1235 21.0003 22.7777 21.1878 22.436 21.3795C22.261 21.4795 22.086 21.5795 21.911 21.6753C21.8027 21.7378 21.6902 21.8003 21.5777 21.8628C21.4443 21.9378 21.311 22.0087 21.1735 22.067C21.1943 21.9337 21.2235 21.8003 21.2568 21.667C21.4193 21.0212 21.6068 20.3837 21.786 19.7462C21.9777 19.0712 22.1652 18.4003 22.336 17.7212C22.3485 17.692 22.3527 17.6628 22.3568 17.6337C22.3652 17.6087 22.3693 17.5795 22.3777 17.5503C22.3777 17.5462 22.3818 17.5378 22.3818 17.5337C22.3902 17.5087 22.3985 17.4837 22.3985 17.4628C22.4027 17.4545 22.4027 17.4462 22.4068 17.4337C22.4068 17.4378 22.4068 17.4378 22.4068 17.4378V17.4337C22.4068 17.4295 22.4068 17.4295 22.4068 17.4253V17.4295C22.4068 17.4295 22.4068 17.4253 22.4068 17.4212C22.4068 17.4253 22.4068 17.4253 22.4068 17.4253C22.411 17.4212 22.411 17.4212 22.411 17.417C22.4193 17.392 22.4235 17.3712 22.4277 17.3462C22.4277 17.342 22.4318 17.3337 22.4318 17.3295C22.4318 17.3253 22.4318 17.3253 22.4318 17.3253C22.7985 15.8628 23.1277 14.392 23.4193 12.9128C23.4943 12.5378 23.5693 12.1628 23.6485 11.7878C23.6818 11.6295 23.7152 11.467 23.7443 11.3087C23.7652 11.1962 23.786 11.0878 23.8027 10.9795C23.8235 10.8587 23.8235 10.7462 23.8152 10.6253C23.811 10.5712 23.7902 10.5128 23.7693 10.4628C23.736 10.3795 23.6735 10.317 23.6068 10.2587C23.5527 10.2128 23.4693 10.1878 23.4027 10.1753C23.3485 10.1628 23.2902 10.1587 23.2318 10.1628C23.1235 10.1712 23.0193 10.2045 22.9152 10.2378C22.8193 10.2712 22.7193 10.3128 22.6277 10.3545C22.4735 10.417 22.3235 10.4878 22.1735 10.5628C21.8318 10.7295 21.4902 10.8962 21.1485 11.0628C20.4402 11.4003 19.7277 11.7253 19.0152 12.042C18.8652 12.1087 18.7152 12.167 18.5652 12.2295C18.4068 12.3003 18.2443 12.3712 18.0818 12.4337C17.736 12.567 17.3943 12.7087 17.0443 12.8295C16.7902 12.917 16.5443 13.0087 16.2902 13.092C16.0318 13.1712 15.7777 13.2587 15.5152 13.3337C15.036 13.4753 14.5568 13.6087 14.0777 13.7378C13.761 13.8212 13.4443 13.9045 13.1235 13.9753C12.9693 14.0128 12.811 14.0462 12.6568 14.0795C12.3777 14.1337 12.0943 14.1962 11.8068 14.2128C11.7485 14.2087 11.6902 14.2045 11.6318 14.1962C11.6277 14.1962 11.6235 14.192 11.6193 14.192C11.6152 14.1628 11.6152 14.1295 11.6152 14.1003C11.6193 13.7462 11.6735 13.3962 11.7277 13.0503C11.786 12.6795 11.8527 12.3128 11.9277 11.9462C12.0693 11.2295 12.2443 10.5212 12.4027 9.80865C12.561 9.08365 12.711 8.35865 12.8443 7.63365C12.9818 6.91282 13.0735 6.18782 13.1693 5.45865C13.2652 4.71282 13.3568 3.96282 13.461 3.21699C13.511 2.85449 13.5652 2.49199 13.6193 2.13365C13.6777 1.76699 13.7443 1.40449 13.786 1.03782C13.7943 0.958654 13.8027 0.875319 13.811 0.796153C13.8193 0.679486 13.8152 0.56282 13.8068 0.450319C13.7943 0.31282 13.736 0.166986 13.6235 0.0794862C13.561 0.0336526 13.4902 0.0211528 13.4152 0.00448615C13.3402 -0.0121805 13.261 0.0211523 13.1943 0.0461528C13.0818 0.087819 12.9943 0.196153 12.9193 0.28782C12.8568 0.358654 12.8068 0.441985 12.7527 0.52532C12.5485 0.837819 12.3527 1.15449 12.1527 1.47115C11.7693 2.09615 11.3777 2.71282 10.9485 3.30449C10.5068 3.92115 10.0443 4.51699 9.5735 5.11282C9.09434 5.72115 8.60267 6.32115 8.10267 6.91282C7.611 7.49615 7.10684 8.06699 6.61517 8.64615C6.13184 9.21699 5.66934 9.80865 5.21517 10.4003C4.3985 11.4545 3.57767 12.5045 2.74434 13.5503C2.68184 13.5545 2.61517 13.5753 2.561 13.617C2.461 13.692 2.3735 13.7712 2.29017 13.8628C2.236 13.9212 2.19017 13.992 2.14017 14.0545C2.086 14.1295 2.03184 14.2003 1.97767 14.2753C1.86934 14.4212 1.761 14.5628 1.65684 14.7087C1.4485 15.0003 1.24434 15.2962 1.05267 15.5962C0.998503 15.6795 0.948502 15.7587 0.898503 15.8378C0.894336 15.8378 0.894336 15.842 0.894336 15.842C0.87767 15.8587 0.86517 15.8795 0.856836 15.9003C0.736003 16.0878 0.615169 16.2753 0.50267 16.467C0.398503 16.6378 0.298504 16.8128 0.21517 16.9962C0.111003 17.217 0.0193364 17.4503 0.00266974 17.6962C-0.0389975 18.2628 0.415169 18.692 0.798503 19.042C1.0735 19.2962 1.35684 19.5378 1.64434 19.7795C2.20267 20.2462 2.77767 20.692 3.32767 21.1628C3.90684 21.6587 4.48184 22.1587 5.07767 22.642C5.65684 23.1087 6.24017 23.567 6.836 24.0128C8.061 24.942 9.30267 25.842 10.5485 26.742C11.7652 27.617 13.0152 28.4462 14.2693 29.2712C14.8652 29.6628 15.4693 30.0378 16.0777 30.4087C16.7485 30.817 17.4152 31.2337 18.0818 31.6462C18.2443 31.7503 18.411 31.8462 18.5777 31.942C18.5652 31.9378 18.5527 31.9295 18.5402 31.9253C18.5527 31.9295 18.5693 31.9378 18.5818 31.9462C18.586 31.9462 18.586 31.9503 18.5902 31.9503C18.5985 31.9545 18.6068 31.9587 18.611 31.9628C18.6068 31.9587 18.5985 31.9545 18.5902 31.9503C18.6027 31.9587 18.611 31.9628 18.6235 31.9712C18.6193 31.967 18.6193 31.967 18.6193 31.967C18.7068 32.017 18.7943 32.067 18.8818 32.117C19.2235 32.3087 19.5735 32.4837 19.936 32.6253C20.2777 32.7587 20.6235 32.8587 20.9777 32.9503C21.3735 33.0545 21.7777 33.1003 22.186 33.0503C22.361 33.0253 22.536 32.9837 22.6985 32.9087C22.911 32.8128 23.0818 32.6628 23.2402 32.4962C23.3735 32.3503 23.486 32.1878 23.6027 32.0295Z" fill="#F28F38"/>
</svg>
