<svg width="1421" height="506" viewBox="0 0 1421 506" fill="none" xmlns="http://www.w3.org/2000/svg">
<g clip-path="url(#clip0_302_5351)">
<path d="M846.023 331.198C849.761 330.74 850.253 330.91 855.276 329.994C858.991 329.313 857.357 328.979 860.861 331.315C869.406 337.008 872.573 338.637 874.918 337.883C877.551 337.036 877.513 334.334 879.092 329.837C879.168 329.616 879.197 329.366 879.184 329.086C879.529 328.083 880.51 324.84 880.53 324.751C884.005 312.051 879.574 318.242 888.192 312.192C892.109 309.52 899.371 305.274 897.498 300.898C897.052 299.87 895.687 299.078 895.772 299.138C884.233 291.23 881.246 291.556 880.267 289.448C878.663 285.756 877.438 282.118 874.759 277.651C872.726 274.257 871.383 270.049 867.327 271.354C863.985 272.429 860.561 277.908 859.437 279.38C859.377 279.465 856.997 282.048 855.242 284.724C839.855 285.637 837.768 286.123 837.848 286.114C834.982 286.576 833.031 286.958 832.01 289.294C830.217 293.345 838.7 304.781 841.243 307.94C837.527 318.94 836.569 327.084 836.623 326.689C835.909 332.412 839.786 331.963 846.023 331.198Z" fill="#E3DFF1"/>
<path d="M929.957 340.188C941.032 341.466 938.352 339.823 939.624 341.427C942.099 344.597 944.755 348.158 947.249 347.356C949.267 346.706 950.129 343.792 950.99 341.179C952.819 335.606 951.523 337.122 955.003 336.101C958.383 335.112 961.803 333.618 963.049 332.883C964.929 331.786 965.361 329.475 964.279 328.116C962.876 326.324 961.646 325.834 960.036 324.809C959.065 324.103 958.129 323.338 957.124 322.665C955.211 321.36 955.628 322.709 955.524 319.17C955.497 318.423 955.186 315.06 954.706 312.495C954.23 309.929 952.205 308.786 950.018 309.49C947.45 310.316 945.395 312.908 943.402 315.333C943.051 315.758 942.666 316.21 942.301 316.64C929.773 314.603 931.84 315.092 932.686 315.17C929.859 314.92 927.428 314.728 926.566 317.561C925.805 320.076 928.987 326.871 930.378 329.679C930.129 330.027 929.821 330.482 929.447 331.122C928.007 333.549 926.718 335.802 926.918 337.122C927.202 339.006 928.31 340.001 929.957 340.188Z" fill="#E3DFF1"/>
<path d="M747.152 457.204C749.514 457.183 762.797 455.157 762.718 455.166C764.16 456.672 770.501 462.538 770.877 462.838C773.369 464.871 774.844 465.95 776.777 465.328C778.919 464.639 778.902 462.937 780.727 457.437C781.062 456.421 782.158 451.51 782.18 451.427C783.172 446.791 781.133 450.757 789.333 445.022C794.359 441.495 799.569 438.32 797.142 435.063C796.483 434.17 795.974 433.573 782.637 426.982C780.84 413.985 779.544 411.623 779.568 411.697C778.884 409.74 776.886 408.649 774.972 409.587C773.324 410.402 762.574 420.487 762.51 420.545C757.146 419.755 745.525 417.289 743.877 422.371C743.37 423.924 744.334 424.998 748.886 436.867C749.324 438.007 749.46 437.476 748.322 439.741C746.202 443.695 744.174 449.397 743.648 453.56C743.4 455.424 744.858 457.236 747.152 457.204Z" fill="#E3DFF1"/>
<path d="M833.222 328.434C832.895 324.797 830.34 320.733 825.438 321.178C817.894 321.843 818.203 331.63 823.778 334.723C827.716 336.897 833.722 334.018 833.222 328.434Z" fill="#E3DFF1"/>
<path d="M853.784 342.275C862.17 338.362 855.807 323.788 846.597 329.974C840.147 334.293 846.516 345.67 853.784 342.275Z" fill="#E3DFF1"/>
<path d="M848.452 360.99C851.204 359.919 853.027 357.472 852.475 354.263C852.201 352.66 852.142 352.92 851.839 351.672C850.962 348.096 845.192 346.369 841.373 350.246C837.454 354.204 841.19 363.808 848.452 360.99Z" fill="#E3DFF1"/>
<path d="M848.38 385.404C842.158 391.012 849.259 401.503 856.84 396.716C858.086 396.458 859.217 395.672 859.705 394.449C861.112 390.932 860.884 388.029 858.134 385.352C855.529 382.781 850.645 383.346 848.38 385.404Z" fill="#E3DFF1"/>
<path d="M800.21 384.057C801.457 383.804 802.587 383.013 803.075 381.79C804.483 378.278 804.249 375.372 801.506 372.698C798.894 370.124 794.015 370.687 791.75 372.745C785.528 378.353 792.626 388.85 800.21 384.057Z" fill="#E3DFF1"/>
<path d="M889.445 280.241C890.687 279.984 891.823 279.197 892.309 277.968C893.717 274.456 893.489 271.554 890.735 268.878C888.13 266.307 883.25 266.871 880.98 268.931C874.763 274.537 881.86 285.029 889.445 280.241Z" fill="#E3DFF1"/>
<path d="M1084.96 390.077C1086.21 389.818 1087.34 389.033 1087.83 387.809C1089.24 384.293 1089.01 381.39 1086.26 378.717C1083.65 376.142 1078.77 376.707 1076.5 378.765C1070.28 384.373 1077.38 394.868 1084.96 390.077Z" fill="#E3DFF1"/>
<path d="M872.92 493.352C874.161 493.095 875.293 492.31 875.785 491.085C877.192 487.568 876.96 484.671 874.211 481.994C871.606 479.424 866.725 479.982 864.457 482.047C858.238 487.648 865.336 498.145 872.92 493.352Z" fill="#E3DFF1"/>
<path d="M882.979 249.773C884.226 249.514 885.352 248.73 885.844 247.505C887.253 243.993 887.023 241.085 884.271 238.414C881.666 235.844 876.784 236.402 874.521 238.466C868.297 244.068 875.394 254.56 882.979 249.773Z" fill="#E3DFF1"/>
<path d="M906.369 405.007C907.424 402.928 906.757 400.855 906.747 400.536C906.591 394.371 899.061 391.169 894.023 396.291C891.34 399.004 891.647 405.077 896.375 408.004C899.355 409.835 904.484 408.754 906.369 405.007Z" fill="#E3DFF1"/>
<path d="M788.345 281.918C789.401 279.844 788.727 277.768 788.717 277.448C788.566 271.282 781.031 268.081 776 273.207C773.315 275.915 773.619 281.994 778.35 284.915C781.33 286.746 786.464 285.664 788.345 281.918Z" fill="#E3DFF1"/>
<path d="M982.272 254.57C983.323 252.497 982.655 250.42 982.647 250.105C982.494 243.933 974.959 240.733 969.928 245.859C967.243 248.567 967.546 254.646 972.283 257.565C975.258 259.398 980.387 258.317 982.272 254.57Z" fill="#E3DFF1"/>
<path d="M820.604 404.064C817.919 406.772 818.227 412.849 822.954 415.771C825.934 417.603 831.063 416.522 832.953 412.773C834.004 410.7 833.331 408.624 833.326 408.303C833.17 402.138 825.64 398.936 820.604 404.064Z" fill="#E3DFF1"/>
<path d="M709.012 356.827C711.293 364.739 717.469 373.196 723.322 378.808C729.707 384.91 743.055 392.511 750.09 394.97C756.135 397.131 764.052 397.898 770.522 398.302C769.965 399.659 766.642 412.25 767.415 420.275C769.112 439.026 775.088 450.259 788.565 463.395C804.989 479.36 826.751 483.37 849.505 479.516C871.951 475.713 879.889 470.343 886.492 466.102C889.922 463.926 908.578 450.163 914.385 444.156C914.31 444.586 916.485 461.819 925.534 477.972C930.94 487.742 936.827 494.088 945.758 501.375C958.484 511.48 967.818 512.693 981.986 510.293C996.385 507.854 1011.09 500.313 1015.07 496.749C1036.76 477.94 1039.25 468.897 1048.19 446.637C1050.26 441.538 1051.18 439.597 1052.09 429.199C1052.2 429.604 1056.72 435.536 1062.39 440.36C1072.32 448.667 1088.87 455.097 1101.37 455.991C1118.57 457.314 1134.56 452.031 1147.13 441.825C1151.36 438.44 1155.74 434.814 1158.57 431.408C1180.45 404.623 1179.29 375.786 1168.7 342.526C1166.1 334.465 1165.76 332.727 1163.02 328.401C1160.94 325.07 1159.02 323.632 1159.23 323.595C1171.27 317.023 1198.86 285.647 1193.6 235.229C1192.1 221.299 1184.03 205.006 1175.31 194.249C1154.84 168.848 1117.26 161.764 1090.82 172.732C1077.03 178.529 1074.49 182.143 1074.33 181.541C1071.28 172.101 1067.22 162.615 1064.07 156.081C1057.6 142.338 1027.56 107.691 995.053 101.804C968.256 95.3246 949.898 97.8165 934.423 103.724C920.983 108.864 904.174 119.091 894.558 129.896C884.185 141.664 879.597 149.478 873.858 162.874C860.043 154.634 846.601 148.285 829.939 145.909C820.429 144.562 803.656 144.62 793.137 147.041C785.098 148.884 778.102 152.182 771.381 155.819C750.477 167.163 750.17 171.679 745.186 176.876C726.95 195.644 721.535 213.164 722.405 237.724C722.786 247.86 722.728 256.966 730.027 275.481C731.9 280.208 733.311 283.577 735.897 287.962C734.395 288.761 731.802 290.7 730.795 291.457C719.646 299.796 712.599 310.493 707.89 323.42C704.876 331.569 706.516 348.052 709.012 356.827Z" fill="#E3DFF1"/>
</g>
<g clip-path="url(#clip1_302_5351)">
<path d="M355.269 381.422C358.658 388.927 365.98 396.414 372.575 401.131C379.767 406.258 394.065 411.873 401.379 413.3C407.671 414.575 415.616 414.202 422.078 413.676C421.721 415.099 420.231 428.036 422.144 435.868C426.505 454.184 434.026 464.446 449.243 475.521C467.78 488.974 489.892 489.831 511.861 482.763C533.532 475.79 540.622 469.34 546.551 464.198C549.634 461.554 566.13 445.265 571.019 438.489C571.006 438.926 575.622 455.671 586.888 470.364C593.635 479.261 600.37 484.699 610.251 490.635C624.291 498.817 633.703 498.683 647.382 494.281C661.284 489.808 674.757 480.243 678.188 476.146C696.965 454.429 698.139 445.122 703.809 421.812C705.121 416.471 705.752 414.419 705.172 403.997C705.335 404.382 710.66 409.606 716.958 413.571C727.977 420.372 745.272 424.371 757.774 423.467C774.983 422.318 790.062 414.801 801.039 402.904C804.745 398.948 808.56 394.734 810.874 390.958C828.694 361.32 823.427 332.945 808.185 301.541C804.468 293.934 803.881 292.263 800.545 288.373C798.015 285.374 795.906 284.225 796.114 284.158C807.091 275.932 829.905 240.934 817.489 191.786C814.014 178.214 803.703 163.241 793.534 153.842C769.639 131.629 731.437 129.991 706.831 144.627C694.008 152.336 692.015 156.277 691.775 155.703C687.4 146.797 682.027 137.988 677.974 131.972C669.606 119.296 634.923 89.2998 601.908 88.1211C574.459 85.5396 556.647 90.6307 542.175 98.6902C529.608 105.699 514.434 118.225 506.461 130.294C497.878 143.424 494.454 151.813 490.69 165.893C475.839 159.712 461.627 155.35 444.796 155.382C435.192 155.408 418.599 157.863 408.534 161.764C400.841 164.737 394.389 169.002 388.257 173.563C369.19 187.779 369.531 192.292 365.342 198.148C349.977 219.331 347.123 237.446 351.495 261.628C353.321 271.606 354.566 280.627 364.437 297.908C366.967 302.319 368.845 305.451 372.032 309.421C370.659 310.426 368.371 312.717 367.482 313.61C357.639 323.457 352.195 335.052 349.382 348.519C347.564 357.016 351.545 373.095 355.269 381.422Z" fill="#E3DFF1"/>
<path d="M517.023 260.198C520.761 259.74 521.253 259.91 526.276 258.994C529.991 258.313 528.357 257.979 531.861 260.315C540.406 266.008 543.573 267.637 545.918 266.883C548.551 266.036 548.513 263.334 550.092 258.837C550.168 258.616 550.197 258.366 550.184 258.086C550.529 257.083 551.51 253.84 551.53 253.751C555.005 241.051 550.574 247.242 559.192 241.192C563.109 238.52 570.371 234.274 568.498 229.898C568.052 228.87 566.687 228.078 566.772 228.138C555.233 220.23 552.246 220.556 551.267 218.448C549.663 214.756 548.438 211.118 545.759 206.651C543.726 203.257 542.383 199.049 538.327 200.354C534.985 201.429 531.561 206.908 530.437 208.38C530.377 208.465 527.997 211.048 526.242 213.724C510.855 214.637 508.768 215.123 508.848 215.114C505.982 215.576 504.031 215.958 503.01 218.294C501.217 222.345 509.7 233.781 512.243 236.94C508.527 247.94 507.569 256.084 507.623 255.689C506.909 261.412 510.786 260.963 517.023 260.198Z" fill="#E3DFF1"/>
<path d="M600.957 269.188C612.032 270.466 609.352 268.823 610.624 270.427C613.099 273.597 615.755 277.158 618.249 276.356C620.267 275.706 621.129 272.792 621.99 270.179C623.819 264.606 622.523 266.122 626.003 265.101C629.383 264.112 632.803 262.618 634.049 261.883C635.929 260.786 636.361 258.475 635.279 257.116C633.876 255.324 632.646 254.834 631.036 253.809C630.065 253.103 629.129 252.338 628.124 251.665C626.211 250.36 626.628 251.709 626.524 248.17C626.497 247.423 626.186 244.06 625.706 241.495C625.23 238.929 623.205 237.786 621.018 238.49C618.45 239.316 616.395 241.908 614.402 244.333C614.051 244.758 613.666 245.21 613.301 245.64C600.773 243.603 602.84 244.092 603.686 244.17C600.859 243.92 598.428 243.728 597.566 246.561C596.805 249.076 599.987 255.871 601.378 258.679C601.129 259.027 600.821 259.482 600.447 260.122C599.007 262.549 597.718 264.802 597.918 266.122C598.202 268.006 599.31 269.001 600.957 269.188Z" fill="#E3DFF1"/>
<path d="M418.152 386.204C420.514 386.183 433.797 384.157 433.718 384.166C435.16 385.672 441.501 391.538 441.877 391.838C444.369 393.871 445.844 394.95 447.777 394.328C449.919 393.639 449.902 391.937 451.727 386.437C452.062 385.421 453.158 380.51 453.18 380.427C454.172 375.791 452.133 379.757 460.333 374.022C465.359 370.495 470.569 367.32 468.142 364.063C467.483 363.17 466.974 362.573 453.637 355.982C451.84 342.985 450.544 340.623 450.568 340.697C449.884 338.74 447.886 337.649 445.972 338.587C444.324 339.402 433.574 349.487 433.51 349.545C428.146 348.755 416.525 346.289 414.877 351.371C414.37 352.924 415.334 353.998 419.886 365.867C420.324 367.007 420.46 366.476 419.322 368.741C417.202 372.695 415.174 378.397 414.648 382.56C414.4 384.424 415.858 386.236 418.152 386.204Z" fill="#E3DFF1"/>
<path d="M504.222 257.434C503.895 253.797 501.34 249.733 496.438 250.178C488.894 250.843 489.203 260.63 494.778 263.723C498.716 265.897 504.722 263.018 504.222 257.434Z" fill="#E3DFF1"/>
<path d="M524.784 271.275C533.17 267.362 526.807 252.788 517.597 258.974C511.147 263.293 517.516 274.67 524.784 271.275Z" fill="#E3DFF1"/>
<path d="M519.452 289.99C522.204 288.919 524.027 286.472 523.475 283.263C523.201 281.66 523.142 281.92 522.839 280.672C521.962 277.096 516.192 275.369 512.373 279.246C508.454 283.204 512.19 292.808 519.452 289.99Z" fill="#E3DFF1"/>
<path d="M519.38 314.404C513.158 320.012 520.259 330.503 527.84 325.716C529.086 325.458 530.217 324.672 530.705 323.449C532.112 319.932 531.884 317.029 529.134 314.352C526.529 311.781 521.645 312.346 519.38 314.404Z" fill="#E3DFF1"/>
<path d="M471.21 313.057C472.457 312.804 473.587 312.013 474.075 310.79C475.483 307.278 475.249 304.372 472.506 301.698C469.894 299.124 465.015 299.687 462.75 301.746C456.528 307.353 463.626 317.85 471.21 313.057Z" fill="#E3DFF1"/>
<path d="M560.445 209.241C561.687 208.984 562.823 208.197 563.309 206.968C564.717 203.456 564.489 200.554 561.735 197.878C559.13 195.307 554.25 195.871 551.98 197.931C545.763 203.537 552.86 214.029 560.445 209.241Z" fill="#E3DFF1"/>
<path d="M755.963 319.077C757.21 318.818 758.341 318.033 758.828 316.809C760.235 313.293 760.007 310.39 757.26 307.717C754.653 305.142 749.768 305.707 747.503 307.765C741.281 313.373 748.384 323.868 755.963 319.077Z" fill="#E3DFF1"/>
<path d="M543.92 422.352C545.161 422.095 546.293 421.31 546.785 420.085C548.192 416.568 547.96 413.671 545.211 410.994C542.606 408.424 537.725 408.982 535.457 411.047C529.238 416.648 536.336 427.145 543.92 422.352Z" fill="#E3DFF1"/>
<path d="M553.979 178.773C555.226 178.514 556.352 177.73 556.844 176.505C558.253 172.993 558.023 170.085 555.271 167.414C552.666 164.844 547.784 165.402 545.521 167.466C539.297 173.068 546.394 183.56 553.979 178.773Z" fill="#E3DFF1"/>
<path d="M577.369 334.007C578.424 331.928 577.757 329.855 577.747 329.536C577.591 323.371 570.061 320.169 565.023 325.291C562.34 328.004 562.647 334.077 567.375 337.004C570.355 338.835 575.484 337.754 577.369 334.007Z" fill="#E3DFF1"/>
<path d="M459.345 210.918C460.401 208.844 459.727 206.768 459.717 206.448C459.566 200.282 452.031 197.081 447 202.207C444.315 204.915 444.619 210.994 449.35 213.915C452.33 215.746 457.464 214.664 459.345 210.918Z" fill="#E3DFF1"/>
<path d="M653.272 183.57C654.323 181.497 653.655 179.42 653.647 179.105C653.494 172.933 645.959 169.733 640.928 174.859C638.243 177.567 638.546 183.646 643.283 186.565C646.258 188.398 651.387 187.317 653.272 183.57Z" fill="#E3DFF1"/>
<path d="M491.604 333.064C488.919 335.772 489.227 341.849 493.954 344.771C496.934 346.603 502.063 345.522 503.953 341.773C505.004 339.7 504.331 337.624 504.326 337.303C504.17 331.138 496.64 327.936 491.604 333.064Z" fill="#E3DFF1"/>
</g>
<path d="M1512.99 253.694C1512.75 233.692 1509.53 218.973 1487.17 192.733C1471.55 174.414 1473.23 176.795 1463.85 170.158C1455.21 164.045 1445.71 159.269 1435.17 158.252C1446.68 121.389 1430.47 77.2047 1385.65 62.0172C1355.89 51.8407 1330.49 53.9219 1299.56 75.0438C1288.23 82.6704 1273.84 98.1719 1267.71 112.708C1261.28 106.619 1249.87 97.0891 1239.55 90.175C1190.87 57.4844 1133.78 66.3813 1102.33 99.6907C1089.49 113.223 1084.19 126.536 1079.12 144.405C1078.39 147.011 1075.02 163.797 1074.46 170.031C1072.47 183.306 1074.31 195.091 1078.46 207.311C1082.23 218.388 1082.65 224.73 1093.86 239.317C1096.17 242.336 1095.73 239.58 1088.28 249.245C1046.46 303.119 1055.73 368.13 1122.02 398.8C1128.63 401.852 1144.08 405.119 1152.01 405.119C1168.3 405.119 1181.97 399.677 1195.52 392.111C1207.91 385.169 1215.4 376.581 1223.84 366.677C1226.2 385.342 1235.26 398.172 1245.22 410.313C1313.9 493.534 1416.57 403.108 1408.1 332.992C1434.41 334.497 1461.67 326.331 1474.62 317.613C1487.77 308.753 1494.74 301.928 1503.31 289.188C1506.24 284.828 1506.83 283.028 1508.01 278.72C1512.69 262.464 1513.09 262.398 1512.99 253.694Z" fill="#E3DFF1"/>
<path d="M1084.66 395.448C1082.78 397.521 1082.08 399.431 1081.7 401.364C1081.53 402.229 1081.61 402.748 1081.71 404.004C1081.8 404.979 1082.15 406.13 1082.91 407.328C1082.81 407.788 1082.74 408.298 1082.81 408.763C1082.93 409.531 1083.75 410.572 1084.71 410.976C1085.5 411.315 1086.83 411.301 1087.62 411.02C1089.19 410.473 1089.63 408.356 1089.16 406.849C1088.31 405.375 1086.4 404.622 1084.4 405.676C1083.95 404.223 1083.92 403.093 1084.1 401.587C1084.27 400.159 1084.96 398.213 1085.32 397.562C1085.57 397.125 1085.71 396.9 1086.12 396.416C1086.5 395.96 1086.17 395.114 1085.46 395.111C1085.17 395.067 1084.85 395.189 1084.66 395.448Z" fill="black"/>
<path d="M1061.63 375.607C1058.49 376.519 1058.65 381.909 1062.98 381.807C1064.34 383.936 1068.69 385.597 1073.56 383.792C1075.63 383.018 1075.73 383 1077.08 382.024C1077.65 381.612 1077.42 380.599 1076.65 380.515C1075.89 380.103 1076.2 380.828 1072.08 381.611C1069.43 382.114 1066.9 381.696 1065.41 380.949C1066.31 380.219 1066.45 379.287 1066.33 378.22C1066.2 377.034 1065.73 376.017 1064.56 375.729C1063.85 375.395 1062.84 375.257 1061.63 375.607Z" fill="black"/>
<path d="M1107.46 340.726C1107.59 341.643 1119.26 357.088 1123.84 363.994C1129.17 372.058 1135.13 373.937 1135.94 374.447C1136.05 374.687 1136.26 374.872 1136.52 374.953C1137.23 375.175 1137.92 375.382 1138.62 375.459C1139.66 375.573 1141.58 375.494 1141.56 375.495C1143.62 375.377 1148.25 374.271 1148.58 374.176C1153.32 372.837 1157.88 370.659 1161.07 366.919C1161.57 366.329 1162.64 365.042 1163.03 364.381C1165.58 360.08 1165.35 360.166 1165.58 359.554C1166.75 356.553 1168.24 352.148 1168.17 348.948C1168.02 341.653 1164.12 333.665 1163.39 330.682C1162.48 326.895 1162.64 326.257 1162.67 324.401C1162.73 321.822 1163.33 321.348 1163.22 320.64C1163.16 320.188 1162.73 319.883 1162.37 319.91C1161.97 319.94 1161.62 320.11 1161.31 320.262C1158.5 321.638 1151.87 316.601 1144.27 314.274C1130.67 310.108 1120.37 313.613 1114.34 320.01C1111.5 323.01 1108.36 328.599 1107.65 333.776C1107.46 335.215 1107.1 338.903 1107.49 340.303C1107.45 340.447 1107.44 340.588 1107.46 340.726Z" fill="#F28F38"/>
<path d="M1072.43 373.564C1072.76 375.798 1074.29 381.27 1075.78 384.512C1076.08 385.152 1076.4 385.742 1076.93 386.847C1077.75 388.511 1077.92 388.836 1078.8 390.013C1080.67 392.846 1081.41 393.79 1084.36 396.121C1084.95 396.59 1085.78 397.332 1086.79 397.97C1088.36 398.957 1089.83 399.61 1089.81 399.598C1099.19 404.278 1106.42 404.721 1114.39 403.42C1121.65 402.236 1127.25 398.462 1127.14 398.531C1127.43 398.342 1128.77 397.749 1129.86 396.639C1132.45 394.808 1134.79 390.6 1135.91 387.645C1138.7 380.369 1139.15 370.65 1137.61 363.713C1137.3 362.287 1136.61 360.155 1136.11 358.793C1134.97 355.609 1133.62 353.129 1131.7 350.273C1131.55 350.043 1131.29 349.895 1131.02 349.874C1127.44 345.216 1123.2 341.752 1118.31 339.314C1115.23 337.779 1111.53 335.402 1103.57 335.592C1099.03 335.7 1095.29 336.293 1089.79 338.319C1086.97 339.363 1081.74 343.329 1079.68 345.753C1075.75 350.367 1074.08 355.998 1074.09 355.975C1072.78 359.469 1072.4 362.299 1071.97 366.577C1071.81 368.106 1072.19 371.967 1072.43 373.564Z" fill="#F28F38"/>
<path d="M1143.66 356.169C1136.23 344.874 1122.73 331.843 1110.15 326.17C1108.94 328.565 1108 331.221 1107.65 333.776C1107.57 334.376 1107.46 335.367 1107.39 336.42C1116.93 341.654 1131.91 355.989 1137.3 365.767C1138.27 367.518 1139.73 369.799 1140.64 371.997C1141.04 372.957 1141.32 373.878 1142.08 375.451C1144.32 375.211 1148.28 374.264 1148.58 374.176C1149.89 373.808 1151.17 373.373 1152.42 372.863C1151.59 370.486 1149.54 365.999 1149.53 365.98C1148.72 364.253 1143.67 356.19 1143.66 356.169Z" fill="black"/>
<path d="M1157.29 329.881C1164.42 339.1 1167.26 346.948 1168.17 349.155C1168.17 349.086 1168.18 349.016 1168.17 348.948C1168.02 341.653 1164.12 333.665 1163.39 330.682C1162.47 326.895 1162.64 326.257 1162.67 324.401C1162.73 321.822 1163.33 321.348 1163.22 320.64C1163.16 320.188 1162.73 319.883 1162.37 319.91C1161.97 319.94 1161.62 320.11 1161.31 320.262C1158.5 321.638 1151.87 316.601 1144.27 314.274C1141.11 313.306 1138.13 312.757 1135.34 312.557C1137.37 313.287 1138.83 314.154 1139.56 314.526C1147.28 318.489 1152.41 323.547 1157.29 329.881Z" fill="black"/>
<path d="M1136.45 321.003C1132.96 318.517 1128.03 315.34 1123.88 313.92C1120.02 315.239 1116.82 317.38 1114.34 320.01C1114.13 320.225 1113.92 320.459 1113.72 320.701C1114.94 321.352 1116.89 322.172 1117.72 322.611C1119.56 323.589 1119.65 323.747 1121.32 324.562C1122.99 325.386 1123.53 325.719 1125.03 326.73C1126.82 327.92 1127.2 327.925 1130.3 330.429C1132.95 332.56 1132.33 332.219 1134.78 334.324C1138.49 337.53 1136.54 335.482 1145.95 346.014C1153.06 354.612 1150.49 351.038 1155.73 359.183C1156.29 360.042 1159.57 365.944 1160.51 367.547C1160.7 367.343 1160.89 367.134 1161.07 366.919C1161.57 366.33 1162.64 365.042 1163.03 364.381C1165.58 360.08 1165.35 360.166 1165.58 359.554C1165.81 358.967 1166.05 358.328 1166.29 357.654C1160.9 344.8 1147.76 329.051 1136.45 321.003Z" fill="black"/>
<path d="M1119.84 330.075C1119.92 330.614 1120.59 333.134 1120.75 333.688C1121.46 336.131 1122.94 338.508 1122.93 338.488C1124.56 341.392 1125.73 342.26 1127.97 344.23C1129.18 345.287 1130.07 345.709 1130.05 345.694C1130.83 346.167 1131.66 346.621 1132.37 346.055C1132.52 346.559 1133.79 348.484 1134.14 348.968C1134.84 349.929 1135.07 349.971 1136.19 351.261C1140.31 356.021 1144.16 361.366 1151.9 361.685C1154.36 361.786 1155.92 361.269 1157.8 360.391C1158.74 359.95 1160.03 359.245 1160.79 358.53C1163.47 356.02 1164.23 354.293 1164.54 352.034C1164.92 349.334 1163.98 346.319 1162.35 344.301C1161.42 343.141 1160.51 342.349 1160.53 342.367C1158.75 340.69 1154.39 338.75 1151.34 338.659C1149.35 338.602 1146.93 338.686 1144.96 339.063C1143.58 339.326 1141.61 339.988 1141.63 339.982C1135.23 342.027 1134.84 343.378 1136.93 341.092C1137.59 340.368 1136.97 340.901 1138.58 339.259C1139.16 338.66 1140.01 337.057 1139.99 337.082C1140.93 335.523 1141.42 334.691 1141.85 332.966C1141.9 332.758 1142.91 328.147 1142.8 327.411C1142.76 327.165 1142.7 327.122 1142.62 326.862C1141.55 322.588 1140.5 320.853 1138.42 319.047C1135.98 316.929 1133.51 316.368 1130.31 316.575C1127.91 316.733 1126.56 317.293 1124.5 318.584C1122.03 320.143 1121.24 321.564 1120.66 322.922C1119.73 325.105 1119.49 327.742 1119.84 330.075Z" fill="#C1B9B0"/>
<path d="M1084.41 333.538C1084.57 334.637 1085.92 339.007 1088.74 342.565C1096.43 352.266 1107.31 353.732 1119.4 351.037C1122.59 350.325 1128.29 347.9 1129.29 347.321C1130.43 346.663 1129.68 346.988 1128.91 348.141C1128.35 348.981 1125.3 352.102 1123.03 356.148C1116.29 368.246 1118.08 381.197 1124.55 388.91C1125.81 390.619 1127.7 392.697 1129.64 393.555C1130.8 394.068 1133.49 395.214 1134.74 395.473C1141.91 397.739 1151.43 391.938 1153.93 385.314C1154.31 384.323 1154.52 383.204 1154.7 382.115C1155.07 382.335 1155.53 382.541 1155.51 382.529C1156.9 383.186 1157.25 383.214 1158.17 383.212C1160.34 383.201 1161.3 383.127 1163.83 380.545C1164.47 379.898 1164.64 379.43 1165.21 378.56C1171.14 370.194 1162.8 350.659 1145.55 345.736C1143.78 345.229 1144.02 345.173 1141.62 344.714C1136.84 343.798 1133.08 344.296 1133.1 344.293C1134.12 342.462 1138.35 327.536 1133.18 316.746C1130.95 312.093 1127.19 307.724 1122.13 306.613C1121.09 306.392 1120.21 306.568 1119.92 306.618C1119.21 306.736 1118.61 306.733 1117.8 307.391C1116.29 308.613 1115.69 309.709 1115.31 311.031C1113.57 309.512 1106.34 306.653 1100.9 308.032C1093.6 309.894 1090.92 312.827 1087.71 317.779C1085.31 321.488 1085.03 323.412 1084.78 325.005C1084.27 327.886 1083.78 329.365 1084.41 333.538Z" fill="#DFD6CB"/>
<path d="M1122.27 331.259C1115.19 324.009 1109.17 322.306 1105.53 320.974C1105.93 321.119 1103.55 320.192 1101.47 319.861C1101.02 319.789 1097.89 319.095 1095.66 318.946C1094.36 318.721 1091.82 318.584 1091.38 318.623C1091.12 318.648 1090.57 318.571 1090.26 319.104C1090.15 319.294 1090.14 319.547 1090.21 319.756C1090.42 320.392 1091.01 320.336 1091.37 320.368C1096.46 320.851 1093.5 320.138 1098.64 321.315C1105.55 322.888 1109.31 324.743 1116.12 329.63C1120.43 332.719 1126.16 339.598 1128.19 342.377C1128.27 342.597 1128.37 342.784 1128.58 342.915C1129.23 343.681 1130.34 342.827 1129.89 342.04C1129.8 341.485 1128.86 339.778 1128.75 339.627C1127.11 337.203 1125.83 334.921 1122.27 331.259Z" fill="white"/>
<path d="M1119.71 311.692C1119.31 312.85 1121.37 312.893 1124.66 321.354C1126.93 327.709 1126.76 331.09 1127.31 331.613C1127.85 332.228 1128.83 331.863 1128.86 331.078C1129.29 328.109 1127.72 321.886 1126.42 318.782C1126.02 317.829 1124.45 314.986 1123.87 314.177C1123.2 313.25 1121.42 311.101 1120.58 311.074C1120.18 311.061 1119.84 311.324 1119.71 311.692Z" fill="white"/>
<path d="M1092.59 336.191C1091.42 335.709 1090.36 336.673 1090.49 337.552C1090.61 338.337 1091.4 339.052 1092.82 338.895C1094.16 338.749 1094.36 336.912 1092.59 336.191Z" fill="white"/>
<path d="M1122.52 343.697C1124.76 343.317 1123.92 341.405 1122.51 341.885C1115.82 342.581 1103.88 340.356 1097 338.388C1096.6 338.274 1096.17 338.183 1095.82 338.496C1095.64 338.652 1095.51 338.941 1095.55 339.187C1095.73 340.418 1098.86 341.043 1100.2 341.478C1101.48 341.897 1101.49 341.828 1102.29 342.002C1103.88 342.348 1107.43 343.696 1114.8 344.084C1115.39 344.114 1115 344.048 1116.67 344.156C1117.82 344.228 1117.85 344.217 1118.31 344.166C1120.75 343.923 1120.98 344.109 1121.88 343.836C1122.09 343.772 1122.3 343.737 1122.52 343.697Z" fill="white"/>
<path d="M1132.33 349.655C1133.26 351.395 1132.46 349.991 1133.63 352.051C1136.08 356.35 1138.58 365.829 1139.31 370.783C1139.39 371.357 1139.66 374.685 1139.66 374.709C1139.94 378.328 1139.84 379.216 1139.79 381.245C1139.74 383.492 1139.92 384.577 1139.44 388.457C1139.41 388.714 1139.33 389.141 1139.63 389.503C1139.82 389.688 1140.02 389.889 1140.46 389.817C1141.21 389.692 1141.34 388.988 1141.72 386.549C1142.22 383.396 1142.6 379.91 1142.33 376.699C1142.01 373.013 1142.6 373.839 1141.06 365.68C1140.07 360.429 1137.38 354.141 1135.22 350.771C1134.23 349.168 1133.77 348.729 1133.66 348.579C1133.07 347.777 1131.64 348.652 1132.33 349.655Z" fill="white"/>
<path d="M1130 382.563C1129.99 381.776 1129.9 380.989 1129.78 380.213C1128.16 369.836 1131.02 357.738 1130.52 356.666C1130.15 355.858 1128.94 355.952 1128.79 356.934C1128.31 360.146 1124.7 372.677 1128.25 382.565C1128.32 382.772 1128.41 383.128 1128.84 383.288C1129.41 383.497 1130 383.039 1130 382.563Z" fill="white"/>
<path d="M1137.99 350.811C1139.04 351.421 1140.01 351.823 1140.45 352.151C1144.67 355.303 1147.86 358.257 1149.42 360.022C1154.79 366.13 1155.89 370.317 1157.02 370.887C1157.3 370.989 1157.61 370.939 1157.85 370.742C1158.35 370.318 1158.1 369.778 1157.89 369.161C1157.61 368.338 1156.9 366.66 1155.99 365.108C1153.52 360.867 1152.36 358.984 1148.43 355.086C1147.59 354.26 1145.34 352.51 1143.38 351.609C1143.02 351.406 1142.68 351.17 1142.34 350.949C1140.95 350.045 1139.96 349.854 1139.65 349.712C1138.87 349.352 1138.74 349.185 1138.35 349.248C1137.53 349.384 1137.41 350.469 1137.99 350.811Z" fill="white"/>
<path d="M1157.56 374.86C1157.75 376.187 1159.52 376.637 1160.02 375.401C1160.04 375.356 1160.23 375.11 1160.15 374.761C1160 374.067 1159.85 373.35 1159.16 373.177C1158.1 372.915 1157.39 373.764 1157.56 374.86Z" fill="white"/>
<path d="M1409.9 73.4371C1411.65 76.032 1412.86 78.995 1413.51 82.328C1413.56 82.5668 1413.54 82.8266 1413.46 83.1051C1413.38 83.3875 1413.24 83.6642 1413.05 83.9429C1412.85 84.2216 1412.62 84.4771 1412.34 84.7133C1412.06 84.9475 1411.76 85.1405 1411.43 85.2945C1411.11 85.4503 1410.79 85.5522 1410.47 85.6023C1410.16 85.6542 1409.87 85.6487 1409.61 85.588C1409.34 85.5294 1409.13 85.4194 1408.97 85.2546C1408.8 85.0937 1408.69 84.8937 1408.65 84.6528C1408.05 81.6391 1406.97 78.9605 1405.38 76.6205C1405.25 76.4294 1405.19 76.2065 1405.18 75.9481C1405.18 75.6897 1405.24 75.42 1405.36 75.135C1405.48 74.852 1405.65 74.5747 1405.88 74.3088C1406.11 74.0392 1406.37 73.7985 1406.67 73.587C1406.97 73.3775 1407.28 73.2112 1407.61 73.0885C1407.93 72.9676 1408.25 72.8993 1408.55 72.8851C1408.85 72.8711 1409.12 72.911 1409.35 73.0086C1409.59 73.1042 1409.77 73.2477 1409.9 73.4371ZM1410.81 103.543C1409.4 107.242 1407.56 111.071 1405.29 115.037C1405.13 115.321 1404.92 115.588 1404.66 115.839C1404.4 116.09 1404.11 116.307 1403.8 116.49C1403.48 116.671 1403.17 116.802 1402.84 116.886C1402.52 116.97 1402.22 116.998 1401.93 116.972C1401.65 116.946 1401.41 116.866 1401.21 116.733C1401.01 116.6 1400.87 116.424 1400.79 116.204C1400.7 115.984 1400.68 115.738 1400.72 115.468C1400.76 115.195 1400.86 114.917 1401.03 114.635C1403.15 110.932 1404.86 107.364 1406.17 103.932C1406.28 103.648 1406.44 103.37 1406.66 103.099C1406.88 102.828 1407.13 102.58 1407.43 102.362C1407.72 102.143 1408.03 101.968 1408.36 101.836C1408.68 101.704 1409 101.625 1409.31 101.601C1409.61 101.574 1409.89 101.604 1410.13 101.688C1410.37 101.774 1410.57 101.906 1410.71 102.089C1410.85 102.272 1410.93 102.49 1410.95 102.74C1410.96 102.994 1410.92 103.261 1410.81 103.543ZM1389.91 136.5C1387.07 139.863 1383.95 143.356 1380.55 146.975C1380.31 147.235 1380.03 147.463 1379.72 147.659C1379.41 147.854 1379.1 148.002 1378.77 148.105C1378.45 148.207 1378.14 148.255 1377.84 148.246C1377.55 148.237 1377.3 148.176 1377.08 148.06C1376.87 147.945 1376.71 147.782 1376.6 147.576C1376.49 147.371 1376.45 147.133 1376.47 146.868C1376.49 146.602 1376.57 146.327 1376.72 146.041C1376.86 145.756 1377.05 145.483 1377.3 145.225C1380.6 141.712 1383.62 138.326 1386.37 135.072C1386.59 134.803 1386.86 134.564 1387.16 134.353C1387.45 134.139 1387.77 133.971 1388.09 133.849C1388.42 133.728 1388.73 133.657 1389.04 133.643C1389.34 133.627 1389.61 133.667 1389.84 133.761C1390.08 133.857 1390.26 134 1390.39 134.189C1390.52 134.379 1390.59 134.603 1390.6 134.86C1390.6 135.118 1390.54 135.388 1390.43 135.672C1390.31 135.955 1390.13 136.233 1389.91 136.5ZM1360.95 166.332C1357.45 169.555 1353.87 172.73 1350.22 175.852C1349.95 176.087 1349.65 176.284 1349.32 176.444C1349 176.603 1348.68 176.709 1348.37 176.766C1348.05 176.822 1347.76 176.822 1347.49 176.767C1347.23 176.71 1347.01 176.604 1346.84 176.447C1346.67 176.289 1346.56 176.093 1346.5 175.858C1346.45 175.619 1346.46 175.362 1346.53 175.083C1346.61 174.803 1346.74 174.523 1346.93 174.245C1347.12 173.967 1347.35 173.708 1347.63 173.47C1351.2 170.416 1354.7 167.311 1358.13 164.157C1358.4 163.909 1358.69 163.703 1359.01 163.531C1359.33 163.359 1359.65 163.239 1359.97 163.164C1360.29 163.094 1360.59 163.078 1360.86 163.118C1361.14 163.157 1361.37 163.247 1361.56 163.392C1361.74 163.537 1361.87 163.723 1361.94 163.949C1362.01 164.177 1362.02 164.428 1361.96 164.703C1361.91 164.98 1361.79 165.258 1361.62 165.541C1361.44 165.822 1361.22 166.085 1360.95 166.332ZM1328.36 193.299C1324.49 196.172 1320.58 198.979 1316.62 201.714C1316.32 201.924 1316 202.089 1315.68 202.206C1315.35 202.323 1315.03 202.388 1314.73 202.398C1314.43 202.406 1314.17 202.363 1313.94 202.263C1313.71 202.163 1313.53 202.014 1313.41 201.821C1313.28 201.627 1313.22 201.401 1313.22 201.142C1313.22 200.881 1313.28 200.61 1313.41 200.324C1313.53 200.041 1313.71 199.765 1313.94 199.499C1314.17 199.233 1314.44 198.994 1314.74 198.786C1318.61 196.107 1322.45 193.36 1326.23 190.547C1326.52 190.328 1326.83 190.153 1327.16 190.02C1327.49 189.888 1327.8 189.81 1328.11 189.783C1328.42 189.757 1328.69 189.789 1328.94 189.873C1329.18 189.957 1329.37 190.091 1329.51 190.274C1329.65 190.455 1329.73 190.671 1329.75 190.925C1329.77 191.177 1329.72 191.446 1329.61 191.728C1329.5 192.013 1329.34 192.291 1329.13 192.562C1328.91 192.833 1328.65 193.08 1328.36 193.299ZM1293.09 216.81C1288.97 219.261 1284.82 221.624 1280.65 223.902C1280.33 224.076 1280.01 224.199 1279.69 224.273C1279.37 224.347 1279.07 224.367 1278.79 224.329C1278.52 224.292 1278.28 224.201 1278.09 224.06C1277.9 223.917 1277.77 223.736 1277.7 223.508C1277.63 223.281 1277.62 223.033 1277.67 222.758C1277.72 222.483 1277.84 222.204 1278.01 221.921C1278.18 221.638 1278.4 221.375 1278.67 221.128C1278.93 220.882 1279.22 220.671 1279.54 220.497C1283.62 218.269 1287.68 215.956 1291.72 213.559C1292.03 213.373 1292.35 213.234 1292.67 213.144C1292.99 213.057 1293.3 213.022 1293.58 213.045C1293.87 213.065 1294.12 213.138 1294.32 213.267C1294.52 213.394 1294.67 213.567 1294.76 213.783C1294.85 213.997 1294.88 214.241 1294.85 214.511C1294.81 214.781 1294.71 215.059 1294.56 215.343C1294.4 215.626 1294.19 215.896 1293.94 216.149C1293.69 216.404 1293.4 216.624 1293.09 216.81ZM1256.1 236.204L1246.44 240.622L1243.45 241.991C1243.13 242.139 1242.81 242.236 1242.49 242.278C1242.18 242.323 1241.89 242.312 1241.64 242.243C1241.38 242.177 1241.17 242.059 1241.01 241.892C1240.86 241.723 1240.75 241.517 1240.72 241.276C1240.68 241.03 1240.7 240.768 1240.79 240.488C1240.88 240.206 1241.02 239.927 1241.22 239.65C1241.43 239.375 1241.67 239.121 1241.95 238.89C1242.24 238.659 1242.54 238.471 1242.87 238.323L1245.85 236.956L1255.52 232.536C1255.84 232.388 1256.16 232.291 1256.47 232.247C1256.79 232.205 1257.07 232.216 1257.33 232.284C1257.59 232.351 1257.79 232.468 1257.95 232.637C1258.11 232.804 1258.21 233.008 1258.25 233.254C1258.29 233.497 1258.26 233.759 1258.18 234.042C1258.09 234.321 1257.94 234.6 1257.74 234.877C1257.54 235.154 1257.3 235.406 1257.01 235.637C1256.73 235.866 1256.42 236.056 1256.1 236.204ZM1219.45 253.953C1215.21 256.352 1211.29 258.791 1207.71 261.267C1207.41 261.475 1207.09 261.64 1206.77 261.759C1206.44 261.876 1206.13 261.939 1205.83 261.951C1205.52 261.959 1205.26 261.914 1205.03 261.814C1204.8 261.714 1204.62 261.567 1204.5 261.374C1204.37 261.178 1204.31 260.954 1204.31 260.695C1204.31 260.434 1204.37 260.162 1204.5 259.877C1204.62 259.594 1204.8 259.318 1205.03 259.052C1205.26 258.786 1205.53 258.547 1205.83 258.339C1209.63 255.713 1213.76 253.137 1218.24 250.608C1218.55 250.429 1218.87 250.299 1219.19 250.221C1219.52 250.141 1219.82 250.116 1220.1 250.144C1220.38 250.176 1220.62 250.258 1220.81 250.397C1221.01 250.532 1221.15 250.712 1221.23 250.934C1221.31 251.156 1221.32 251.404 1221.28 251.677C1221.23 251.949 1221.13 252.226 1220.96 252.51C1220.79 252.792 1220.58 253.061 1220.32 253.309C1220.06 253.561 1219.77 253.775 1219.45 253.953ZM1188.45 278.81C1185.65 282.28 1183.34 285.736 1181.5 289.181C1181.35 289.466 1181.15 289.735 1180.9 289.992C1180.65 290.248 1180.37 290.473 1180.06 290.662C1179.75 290.852 1179.43 290.992 1179.1 291.089C1178.78 291.184 1178.47 291.222 1178.18 291.206C1177.89 291.19 1177.64 291.123 1177.44 290.997C1177.23 290.872 1177.07 290.707 1176.98 290.495C1176.88 290.282 1176.85 290.042 1176.88 289.774C1176.91 289.504 1177 289.228 1177.15 288.943C1179.18 285.137 1181.73 281.325 1184.81 277.509C1185.03 277.236 1185.28 276.992 1185.58 276.775C1185.87 276.557 1186.18 276.382 1186.51 276.252C1186.83 276.12 1187.15 276.044 1187.46 276.018C1187.76 275.995 1188.04 276.025 1188.28 276.113C1188.52 276.199 1188.71 276.334 1188.85 276.517C1188.99 276.702 1189.07 276.919 1189.08 277.173C1189.1 277.425 1189.05 277.692 1188.94 277.976C1188.83 278.261 1188.67 278.539 1188.45 278.81Z" fill="#6451A6"/>
<g clip-path="url(#clip2_302_5351)">
<path d="M-83.4321 220.974C-82.1084 229.102 -76.9815 238.233 -71.8374 244.501C-66.2233 251.319 -53.8742 260.454 -47.1809 263.731C-41.4359 266.596 -33.6669 268.299 -27.29 269.469C-28.0046 270.75 -32.802 282.857 -32.9886 290.917C-33.5329 309.737 -28.9353 321.601 -17.1157 336.246C-2.70724 354.052 18.4235 360.621 41.4743 359.499C64.2131 358.393 72.7338 354.005 79.7944 350.579C83.4583 348.826 103.619 337.38 110.099 332.105C109.973 332.523 110.083 349.893 117.147 367.007C121.353 377.351 126.444 384.352 134.445 392.65C145.88 404.196 155.003 406.511 169.356 405.812C183.943 405.103 199.437 399.364 203.814 396.298C227.586 380.202 231.137 371.519 242.664 350.481C245.319 345.664 246.461 343.846 248.608 333.63C248.664 334.045 252.45 340.473 257.503 345.937C266.378 355.365 282.042 363.718 294.349 366.091C311.266 369.45 327.78 366.107 341.47 357.468C346.076 354.611 350.854 351.531 354.069 348.486C378.974 324.492 381.255 295.722 374.691 261.438C373.076 253.126 372.943 251.36 370.732 246.738C369.068 243.184 367.329 241.527 367.547 241.517C380.283 236.423 411.403 208.549 412.175 157.863C412.343 143.854 406.274 126.718 398.893 115C381.586 87.3449 345.119 75.8433 317.557 83.5879C303.172 87.7033 300.225 90.9911 300.142 90.3746C298.229 80.6383 295.328 70.7364 292.976 63.8739C288.187 49.4594 262.482 11.4868 230.905 1.77565C205.069 -7.84455 186.545 -7.55328 170.477 -3.52797C156.522 -0.0226287 138.616 8.13335 127.782 17.7181C116.084 28.1688 110.6 35.3814 103.309 48.0007C90.5712 38.1759 77.9795 30.2733 61.7181 25.9335C52.4361 23.4651 35.7754 21.5278 25.0427 22.681C16.8411 23.5546 9.50326 25.9975 2.39717 28.8097C-19.7076 37.5872 -20.5497 42.0344 -26.1155 46.602C-46.4538 63.0683 -53.914 79.8205 -55.9711 104.309C-56.7984 114.418 -57.9387 123.453 -52.8929 142.705C-51.5951 147.621 -50.5951 151.134 -48.5484 155.795C-50.135 156.41 -52.9399 158.027 -54.0303 158.659C-66.092 165.613 -74.3606 175.396 -80.5735 187.671C-84.5356 195.404 -84.8665 211.965 -83.4321 220.974Z" fill="#E3DFF1"/>
<path d="M104.251 145.909C107.979 146.437 108.41 146.729 113.499 147.149C117.263 147.456 115.772 146.709 118.549 149.875C125.323 157.591 127.958 159.987 130.418 159.867C133.181 159.733 133.846 157.114 136.538 153.182C136.67 152.988 136.762 152.754 136.822 152.48C137.416 151.601 139.205 148.724 139.248 148.644C145.901 137.281 140.015 142.109 149.908 138.504C154.385 136.941 162.5 134.726 161.827 130.014C161.664 128.906 160.551 127.787 160.618 127.867C151.527 117.234 148.559 116.773 148.161 114.483C147.571 110.501 147.332 106.67 145.905 101.66C144.822 97.8544 144.618 93.4424 140.363 93.6495C136.857 93.8201 132.127 98.2218 130.66 99.3518C130.58 99.4183 127.61 101.294 125.221 103.423C110.125 100.309 107.983 100.236 108.062 100.248C105.174 99.9505 103.191 99.8124 101.599 101.804C98.815 105.25 104.038 118.496 105.673 122.208C99.2289 131.866 96.1892 139.481 96.3434 139.114C94.1681 144.455 98.0287 145.028 104.251 145.909Z" fill="#E3DFF1"/>
<path d="M182.97 176.385C193.333 180.495 191.173 178.212 191.984 180.092C193.551 183.796 195.192 187.924 197.808 187.797C199.926 187.694 201.515 185.103 203.025 182.803C206.238 177.896 204.593 179.024 208.218 178.942C211.74 178.864 215.43 178.309 216.825 177.923C218.924 177.352 219.942 175.232 219.25 173.639C218.36 171.544 217.3 170.751 216.011 169.343C215.256 168.41 214.552 167.428 213.756 166.517C212.247 164.761 212.3 166.171 213.118 162.726C213.286 161.998 213.859 158.67 214.061 156.068C214.268 153.467 212.609 151.837 210.315 151.949C207.62 152.08 204.963 154.05 202.408 155.874C201.959 156.193 201.47 156.53 201.006 156.85C189.436 151.63 191.305 152.639 192.102 152.934C189.437 151.958 187.139 151.142 185.572 153.653C184.184 155.885 185.492 163.273 186.106 166.345C185.775 166.617 185.36 166.976 184.832 167.497C182.811 169.468 180.982 171.309 180.833 172.635C180.617 174.528 181.429 175.777 182.97 176.385Z" fill="#E3DFF1"/>
<path d="M-23.948 241.92C-21.6613 242.513 -8.30728 244.006 -8.38608 243.994C-7.38456 245.823 -2.7842 253.134 -2.4994 253.522C-0.620336 256.131 0.523205 257.557 2.55205 257.458C4.79939 257.348 5.22503 255.701 8.41553 250.863C9.00298 249.969 11.336 245.512 11.3792 245.436C13.5413 241.217 10.5419 244.518 19.9499 241.109C25.7192 239.008 31.5751 237.294 30.0773 233.519C29.6724 232.485 29.3355 231.777 18.1676 221.949C19.8077 208.932 19.1692 206.314 19.173 206.392C19.0203 204.324 17.3742 202.751 15.2822 203.16C13.4798 203.519 0.479208 210.467 0.402949 210.507C-4.57233 208.35 -15.1545 202.952 -18.0652 207.432C-18.9581 208.8 -18.3062 210.087 -16.9922 222.731C-16.8653 223.945 -16.5966 223.468 -18.2827 225.36C-21.3566 228.627 -24.7957 233.608 -26.3849 237.492C-27.1087 239.227 -26.1708 241.356 -23.948 241.92Z" fill="#E3DFF1"/>
<path d="M92.6068 139.916C93.2348 136.319 91.8227 131.731 86.9738 130.887C79.5156 129.571 77.2731 139.103 81.8534 143.537C85.0923 146.659 91.6397 145.438 92.6068 139.916Z" fill="white"/>
<path d="M108.869 158.622C117.984 157.02 115.623 141.294 105.124 144.876C97.7726 147.372 100.969 160.012 108.869 158.622Z" fill="white"/>
<path d="M98.8609 175.31C101.797 174.99 104.192 173.1 104.493 169.858C104.644 168.239 104.52 168.475 104.551 167.191C104.633 163.51 99.5093 160.344 94.8146 163.096C90.0025 165.901 91.1163 176.146 98.8609 175.31Z" fill="white"/>
<path d="M92.4515 198.868C84.9867 202.668 89.1205 214.642 97.6839 211.989C98.9547 212.062 100.251 211.598 101.04 210.543C103.312 207.512 103.845 204.649 101.885 201.35C100.037 198.191 95.1732 197.469 92.4515 198.868Z" fill="white"/>
<path d="M46.2828 185.059C47.5538 185.138 48.8502 184.668 49.6384 183.613C51.9107 180.588 52.4386 177.72 50.4845 174.426C48.6307 171.262 43.7721 170.539 41.0504 171.939C33.5856 175.738 37.7145 187.718 46.2828 185.059Z" fill="white"/>
<path d="M159.415 107.975C160.68 108.049 161.982 107.584 162.77 106.524C165.042 103.498 165.576 100.635 163.611 97.3364C161.762 94.1777 156.904 93.4547 154.177 94.8545C146.717 98.6538 150.846 110.629 159.415 107.975Z" fill="white"/>
<path d="M319.706 264.812C320.977 264.886 322.274 264.421 323.062 263.366C325.334 260.335 325.867 257.473 323.908 254.179C322.059 251.015 317.196 250.292 314.474 251.692C307.009 255.491 311.143 267.471 319.706 264.812Z" fill="white"/>
<path d="M88.119 309.485C89.3845 309.559 90.6812 309.095 91.4746 308.039C93.7466 305.009 94.275 302.152 92.3155 298.852C90.4671 295.694 85.6082 294.965 82.8816 296.37C75.4218 300.164 79.5506 312.145 88.119 309.485Z" fill="white"/>
<path d="M161.082 76.8726C162.352 76.9464 163.644 76.482 164.437 75.4266C166.709 72.4011 167.243 69.5333 165.278 66.2394C163.43 63.0807 158.571 62.3525 155.849 63.7573C148.384 67.5516 152.513 79.5266 161.082 76.8726Z" fill="white"/>
<path d="M143.361 232.856C144.919 231.122 144.813 228.947 144.887 228.636C146.337 222.642 139.896 217.595 133.701 221.233C130.405 223.156 129.125 229.101 132.931 233.155C135.333 235.697 140.567 235.985 143.361 232.856Z" fill="white"/>
<path d="M61.3461 83.3423C62.9045 81.6135 62.7933 79.434 62.8668 79.1228C64.3219 73.1283 57.8763 68.0815 51.6867 71.7252C48.3906 73.6428 47.1053 79.5925 50.916 83.6413C53.3184 86.1838 58.5574 86.4711 61.3461 83.3423Z" fill="white"/>
<path d="M255.724 107.288C257.277 105.559 257.171 103.38 257.245 103.073C258.7 97.0738 252.254 92.027 246.065 95.6706C242.769 97.5883 241.483 103.538 245.299 107.587C247.696 110.129 252.93 110.417 255.724 107.288Z" fill="white"/>
<path d="M60.7825 209.675C57.4864 211.593 56.2064 217.542 60.0118 221.591C62.4143 224.134 67.648 224.422 70.4471 221.292C72.0004 219.564 71.8891 217.384 71.9678 217.073C73.4177 211.078 66.9773 206.031 60.7825 209.675Z" fill="white"/>
</g>
<defs>
<clipPath id="clip0_302_5351">
<rect width="500" height="500" fill="white" transform="translate(1233.11 528.969) rotate(162.164)"/>
</clipPath>
<clipPath id="clip1_302_5351">
<rect width="500" height="500" fill="white" transform="translate(904.114 457.969) rotate(162.164)"/>
</clipPath>
<clipPath id="clip2_302_5351">
<rect width="500" height="500" fill="white" transform="translate(426.711 437.409) rotate(177.214)"/>
</clipPath>
</defs>
</svg>
